<svg xmlns="http://www.w3.org/2000/svg" width="37" height="48" viewBox="0 0 37 48"><g transform="translate(-56.343 -0.003)"><g transform="translate(56.343 0.003)"><path d="M70.422,38.573a2.86,2.86,0,1,0,2.826,2.859A2.846,2.846,0,0,0,70.422,38.573Zm9.845,7.555a2.4,2.4,0,0,0,2.381-2.408V27.138q-.3-.066-.6-.154l-5.829,5.9a4.21,4.21,0,0,1-5.989,0,4.326,4.326,0,0,1,0-6.06l5.827-5.9a9.035,9.035,0,0,1,2.229-8.814A8.786,8.786,0,0,1,82.649,9.7V4.286a2.4,2.4,0,0,0-2.381-2.408H78.254L77.373,4.62a.927.927,0,0,1-.881.648H64.351a.928.928,0,0,1-.881-.648l-.88-2.742H60.577A2.4,2.4,0,0,0,58.2,4.286V43.719a2.4,2.4,0,0,0,2.381,2.408ZM76.306,1.878,75.82,3.393H65.025l-.486-1.515ZM92.7,15.071a.928.928,0,0,0-.674-.567.918.918,0,0,0-.84.255l-4.57,4.625-2.4-.651L83.568,16.3l4.57-4.624a.943.943,0,0,0-.308-1.532A8.729,8.729,0,0,0,84.5,9.494V4.286A4.264,4.264,0,0,0,80.267,0H60.577a4.264,4.264,0,0,0-4.234,4.283V43.72A4.264,4.264,0,0,0,60.577,48H80.267A4.264,4.264,0,0,0,84.5,43.72V27.338a8.791,8.791,0,0,0,6.255-2.609A8.988,8.988,0,0,0,92.7,15.071Z" transform="translate(-56.343 -0.003)" fill="#fff" fill-rule="evenodd"/></g></g></svg>